<mxfile host="app.diagrams.net" modified="2023-01-19T22:30:38.568Z" agent="5.0 (Windows NT 10.0; Win64; x64) AppleWebKit/537.36 (KHTML, like Gecko) Chrome/109.0.0.0 Safari/537.36" version="20.8.4" etag="N6uL1FQAUvn3AVis1Jr0" type="github">
  <diagram id="Pk3d-KVDzteVlHs0GUSo" name="Pagina-1">
    <mxGraphModel dx="984" dy="1074" grid="1" gridSize="10" guides="1" tooltips="1" connect="1" arrows="1" fold="1" page="1" pageScale="1" pageWidth="4681" pageHeight="3300" math="0" shadow="0">
      <root>
        <mxCell id="0" />
        <mxCell id="1" parent="0" />
        <mxCell id="AGJ-P0A6_amNQjo4aaS8-1" value="Sleep" style="ellipse;whiteSpace=wrap;html=1;" vertex="1" parent="1">
          <mxGeometry x="240" y="320" width="80" height="80" as="geometry" />
        </mxCell>
        <mxCell id="AGJ-P0A6_amNQjo4aaS8-3" value="" style="curved=1;endArrow=classic;html=1;rounded=0;exitX=0;exitY=0.5;exitDx=0;exitDy=0;entryX=0;entryY=0;entryDx=0;entryDy=0;startArrow=none;" edge="1" parent="1" source="AGJ-P0A6_amNQjo4aaS8-2" target="AGJ-P0A6_amNQjo4aaS8-1">
          <mxGeometry width="50" height="50" relative="1" as="geometry">
            <mxPoint x="350" y="410" as="sourcePoint" />
            <mxPoint x="400" y="360" as="targetPoint" />
            <Array as="points">
              <mxPoint x="210" y="250" />
              <mxPoint x="210" y="320" />
            </Array>
          </mxGeometry>
        </mxCell>
        <mxCell id="AGJ-P0A6_amNQjo4aaS8-15" style="edgeStyle=orthogonalEdgeStyle;rounded=0;orthogonalLoop=1;jettySize=auto;html=1;exitX=0.5;exitY=1;exitDx=0;exitDy=0;entryX=0.5;entryY=0;entryDx=0;entryDy=0;" edge="1" parent="1" source="AGJ-P0A6_amNQjo4aaS8-4" target="AGJ-P0A6_amNQjo4aaS8-5">
          <mxGeometry relative="1" as="geometry" />
        </mxCell>
        <mxCell id="AGJ-P0A6_amNQjo4aaS8-4" value="A" style="ellipse;whiteSpace=wrap;html=1;aspect=fixed;" vertex="1" parent="1">
          <mxGeometry x="360" y="440" width="80" height="80" as="geometry" />
        </mxCell>
        <mxCell id="AGJ-P0A6_amNQjo4aaS8-16" style="edgeStyle=orthogonalEdgeStyle;rounded=0;orthogonalLoop=1;jettySize=auto;html=1;exitX=0.5;exitY=1;exitDx=0;exitDy=0;entryX=0.5;entryY=0;entryDx=0;entryDy=0;" edge="1" parent="1" source="AGJ-P0A6_amNQjo4aaS8-5" target="AGJ-P0A6_amNQjo4aaS8-6">
          <mxGeometry relative="1" as="geometry" />
        </mxCell>
        <mxCell id="AGJ-P0A6_amNQjo4aaS8-5" value="B" style="ellipse;whiteSpace=wrap;html=1;aspect=fixed;" vertex="1" parent="1">
          <mxGeometry x="360" y="600" width="80" height="80" as="geometry" />
        </mxCell>
        <mxCell id="AGJ-P0A6_amNQjo4aaS8-19" style="edgeStyle=orthogonalEdgeStyle;rounded=0;orthogonalLoop=1;jettySize=auto;html=1;exitX=0.5;exitY=1;exitDx=0;exitDy=0;entryX=0.5;entryY=0;entryDx=0;entryDy=0;curved=1;startArrow=none;" edge="1" parent="1" source="AGJ-P0A6_amNQjo4aaS8-9" target="AGJ-P0A6_amNQjo4aaS8-14">
          <mxGeometry relative="1" as="geometry">
            <Array as="points">
              <mxPoint x="400" y="1020" />
            </Array>
          </mxGeometry>
        </mxCell>
        <mxCell id="AGJ-P0A6_amNQjo4aaS8-6" value="C" style="ellipse;whiteSpace=wrap;html=1;aspect=fixed;" vertex="1" parent="1">
          <mxGeometry x="360" y="761.72" width="80" height="80" as="geometry" />
        </mxCell>
        <mxCell id="AGJ-P0A6_amNQjo4aaS8-7" value="-----/000000" style="rounded=0;whiteSpace=wrap;html=1;" vertex="1" parent="1">
          <mxGeometry x="360" y="550" width="80" height="20" as="geometry" />
        </mxCell>
        <mxCell id="AGJ-P0A6_amNQjo4aaS8-8" value="-----/000000" style="rounded=0;whiteSpace=wrap;html=1;" vertex="1" parent="1">
          <mxGeometry x="360" y="710" width="80" height="20" as="geometry" />
        </mxCell>
        <mxCell id="AGJ-P0A6_amNQjo4aaS8-13" value="" style="curved=1;endArrow=classic;html=1;rounded=0;exitX=1;exitY=0.5;exitDx=0;exitDy=0;entryX=0.5;entryY=0;entryDx=0;entryDy=0;" edge="1" parent="1" source="AGJ-P0A6_amNQjo4aaS8-1" target="AGJ-P0A6_amNQjo4aaS8-4">
          <mxGeometry width="50" height="50" relative="1" as="geometry">
            <mxPoint x="520" y="670" as="sourcePoint" />
            <mxPoint x="570" y="620" as="targetPoint" />
            <Array as="points">
              <mxPoint x="360" y="360" />
              <mxPoint x="400" y="400" />
            </Array>
          </mxGeometry>
        </mxCell>
        <mxCell id="AGJ-P0A6_amNQjo4aaS8-22" style="edgeStyle=orthogonalEdgeStyle;curved=1;rounded=0;orthogonalLoop=1;jettySize=auto;html=1;exitX=0.5;exitY=0;exitDx=0;exitDy=0;entryX=0;entryY=0.5;entryDx=0;entryDy=0;startArrow=none;" edge="1" parent="1" source="AGJ-P0A6_amNQjo4aaS8-24" target="AGJ-P0A6_amNQjo4aaS8-1">
          <mxGeometry relative="1" as="geometry">
            <Array as="points">
              <mxPoint x="150" y="630" />
              <mxPoint x="150" y="360" />
            </Array>
          </mxGeometry>
        </mxCell>
        <mxCell id="AGJ-P0A6_amNQjo4aaS8-14" value="Awake" style="ellipse;whiteSpace=wrap;html=1;" vertex="1" parent="1">
          <mxGeometry x="360" y="920" width="80" height="80" as="geometry" />
        </mxCell>
        <mxCell id="AGJ-P0A6_amNQjo4aaS8-21" value="" style="edgeStyle=orthogonalEdgeStyle;rounded=0;orthogonalLoop=1;jettySize=auto;html=1;exitX=0.5;exitY=1;exitDx=0;exitDy=0;entryX=0.5;entryY=0;entryDx=0;entryDy=0;curved=1;endArrow=none;" edge="1" parent="1" source="AGJ-P0A6_amNQjo4aaS8-6" target="AGJ-P0A6_amNQjo4aaS8-9">
          <mxGeometry relative="1" as="geometry">
            <mxPoint x="400" y="841.72" as="sourcePoint" />
            <mxPoint x="320" y="960" as="targetPoint" />
          </mxGeometry>
        </mxCell>
        <mxCell id="AGJ-P0A6_amNQjo4aaS8-9" value="-----/000000" style="rounded=0;whiteSpace=wrap;html=1;" vertex="1" parent="1">
          <mxGeometry x="360" y="870" width="80" height="20" as="geometry" />
        </mxCell>
        <mxCell id="AGJ-P0A6_amNQjo4aaS8-25" value="" style="edgeStyle=orthogonalEdgeStyle;curved=1;rounded=0;orthogonalLoop=1;jettySize=auto;html=1;exitX=0;exitY=0.5;exitDx=0;exitDy=0;entryX=0.5;entryY=1;entryDx=0;entryDy=0;endArrow=none;" edge="1" parent="1" source="AGJ-P0A6_amNQjo4aaS8-14" target="AGJ-P0A6_amNQjo4aaS8-24">
          <mxGeometry relative="1" as="geometry">
            <mxPoint x="240" y="960" as="sourcePoint" />
            <mxPoint x="240" y="360" as="targetPoint" />
            <Array as="points">
              <mxPoint x="150" y="960" />
            </Array>
          </mxGeometry>
        </mxCell>
        <mxCell id="AGJ-P0A6_amNQjo4aaS8-24" value="00000/000000" style="rounded=0;whiteSpace=wrap;html=1;" vertex="1" parent="1">
          <mxGeometry x="110" y="830" width="80" height="20" as="geometry" />
        </mxCell>
        <mxCell id="AGJ-P0A6_amNQjo4aaS8-26" value="" style="curved=1;endArrow=none;html=1;rounded=0;exitX=1;exitY=0;exitDx=0;exitDy=0;entryX=1;entryY=0.5;entryDx=0;entryDy=0;" edge="1" parent="1" source="AGJ-P0A6_amNQjo4aaS8-1" target="AGJ-P0A6_amNQjo4aaS8-2">
          <mxGeometry width="50" height="50" relative="1" as="geometry">
            <mxPoint x="316.56000000000006" y="340.56000000000006" as="sourcePoint" />
            <mxPoint x="251.7157287525381" y="331.7157287525381" as="targetPoint" />
            <Array as="points">
              <mxPoint x="350" y="320" />
              <mxPoint x="360" y="250" />
            </Array>
          </mxGeometry>
        </mxCell>
        <mxCell id="AGJ-P0A6_amNQjo4aaS8-2" value="0-----/000000&lt;br&gt;-0----/000000&lt;br&gt;--0---/000000&lt;br&gt;---0--/000000&lt;br&gt;----0-/000000&lt;br&gt;-----0/000000" style="rounded=0;whiteSpace=wrap;html=1;" vertex="1" parent="1">
          <mxGeometry x="240" y="190" width="80" height="90" as="geometry" />
        </mxCell>
        <mxCell id="AGJ-P0A6_amNQjo4aaS8-29" style="edgeStyle=orthogonalEdgeStyle;curved=1;rounded=0;orthogonalLoop=1;jettySize=auto;html=1;exitX=0.5;exitY=1;exitDx=0;exitDy=0;entryX=1;entryY=0.5;entryDx=0;entryDy=0;startArrow=none;" edge="1" parent="1" source="AGJ-P0A6_amNQjo4aaS8-39" target="AGJ-P0A6_amNQjo4aaS8-14">
          <mxGeometry relative="1" as="geometry" />
        </mxCell>
        <mxCell id="AGJ-P0A6_amNQjo4aaS8-37" value="" style="curved=1;endArrow=none;html=1;rounded=0;exitX=1;exitY=1;exitDx=0;exitDy=0;entryX=1;entryY=0.5;entryDx=0;entryDy=0;" edge="1" parent="1" source="AGJ-P0A6_amNQjo4aaS8-14" target="AGJ-P0A6_amNQjo4aaS8-32">
          <mxGeometry width="50" height="50" relative="1" as="geometry">
            <mxPoint x="428.28427124745895" y="988.2842712474587" as="sourcePoint" />
            <mxPoint x="371.7157287525408" y="988.2842712474592" as="targetPoint" />
            <Array as="points">
              <mxPoint x="470" y="990" />
              <mxPoint x="500" y="1060" />
              <mxPoint x="470" y="1140" />
            </Array>
          </mxGeometry>
        </mxCell>
        <mxCell id="AGJ-P0A6_amNQjo4aaS8-38" style="edgeStyle=orthogonalEdgeStyle;rounded=0;orthogonalLoop=1;jettySize=auto;html=1;exitX=0;exitY=0.5;exitDx=0;exitDy=0;entryX=0;entryY=1;entryDx=0;entryDy=0;elbow=vertical;curved=1;" edge="1" parent="1" source="AGJ-P0A6_amNQjo4aaS8-32" target="AGJ-P0A6_amNQjo4aaS8-14">
          <mxGeometry relative="1" as="geometry">
            <Array as="points">
              <mxPoint x="310" y="1135" />
              <mxPoint x="310" y="988" />
            </Array>
          </mxGeometry>
        </mxCell>
        <mxCell id="AGJ-P0A6_amNQjo4aaS8-32" value="01100/010100&lt;br&gt;01010/010010&lt;br&gt;01001/010001&lt;br&gt;10100/001100&lt;br&gt;10010/001010&lt;br&gt;10001/001010" style="rounded=0;whiteSpace=wrap;html=1;" vertex="1" parent="1">
          <mxGeometry x="360" y="1060" width="80" height="150" as="geometry" />
        </mxCell>
        <mxCell id="AGJ-P0A6_amNQjo4aaS8-40" value="" style="edgeStyle=orthogonalEdgeStyle;curved=1;rounded=0;orthogonalLoop=1;jettySize=auto;html=1;exitX=1;exitY=0;exitDx=0;exitDy=0;entryX=0.5;entryY=0;entryDx=0;entryDy=0;endArrow=none;" edge="1" parent="1" source="AGJ-P0A6_amNQjo4aaS8-14" target="AGJ-P0A6_amNQjo4aaS8-39">
          <mxGeometry relative="1" as="geometry">
            <mxPoint x="428.28427124745895" y="931.715728752541" as="sourcePoint" />
            <mxPoint x="439.9999999999977" y="960" as="targetPoint" />
            <Array as="points" />
          </mxGeometry>
        </mxCell>
        <mxCell id="AGJ-P0A6_amNQjo4aaS8-39" value="11---/100000&lt;br&gt;0011-/100000&lt;br&gt;001-1/100000&lt;br&gt;00-11/100000" style="rounded=0;whiteSpace=wrap;html=1;" vertex="1" parent="1">
          <mxGeometry x="600" y="800" width="80" height="70" as="geometry" />
        </mxCell>
      </root>
    </mxGraphModel>
  </diagram>
</mxfile>
